<svg width="48" height="48" viewBox="0 0 48 48" fill="none" xmlns="http://www.w3.org/2000/svg">
<path d="M46 8.00003V20M46 20H34M46 20L36.72 11.28C34.5705 9.12946 31.9113 7.55844 28.9904 6.71358C26.0695 5.86871 22.9822 5.77753 20.0166 6.44855C17.0509 7.11956 14.3036 8.5309 12.0309 10.5509C9.75827 12.5708 8.03434 15.1336 7.02 18M2 40V28M2 28H14M2 28L11.28 36.72C13.4295 38.8706 16.0887 40.4416 19.0096 41.2865C21.9305 42.1313 25.0178 42.2225 27.9834 41.5515C30.9491 40.8805 33.6964 39.4692 35.9691 37.4492C38.2417 35.4292 39.9657 32.8665 40.98 30" stroke="#F3F3F3" stroke-width="4" stroke-linecap="round" stroke-linejoin="round"/>
</svg>
